# xmcd CD database file
#
# Track frame offsets:
#	150
#	13870
#	27613
#	39472
#	56097
#	74308
#	88577
#	101739
#	115346
#	126941
#	141198
#	155820
#	168635
#	179686
#	192707
#
# Disc length: 2760 seconds
#
# Revision: 0
# Processed by: cddbd v1.5.2PL0 Copyright (c) Steve Scherf et al.
# Submitted via: CDex 1.70beta2
#
DISCID=e90ac60f
DTITLE=Miles Davis - Compilation Disc 1
DYEAR=2007
DGENRE=Jazz
TTITLE0=Boplicity
TTITLE1=Dexterity (Miles Davis with the Charlie Parker Quintet)
TTITLE2=Milestones
TTITLE3=The Squirrel (Miles Davis with Tadd Dameron's Big Ten)
TTITLE4=Max is Making Wax (Miles Davis Sextet)
TTITLE5=Billie's Bounce (Miles Davis with Charlie Parker's Ree Boppers)
TTITLE6=Bluebird (Miles Davis with the Charlie Parker All Stars)
TTITLE7=Donna Lee (Miles Davis with the Charlie Parker All Stars)
TTITLE8=Move
TTITLE9=Godchild
TTITLE10=My Old Flame (Miles Davis with the Charlie Parker Quintet)
TTITLE11=Scrapple from the Apple ( Miles Davis with the Charlie Parker Quintet)
TTITLE12=Constellation (Miles Davis with the Charlie Parker All Stars)
TTITLE13=Ah-Leu-Cha (Miles Davis with the Charlie Parker All Stars)
TTITLE14=Venus De MIlo
EXTD=YEAR: 2007
EXTT0=
EXTT1=
EXTT2=
EXTT3=
EXTT4=
EXTT5=
EXTT6=
EXTT7=
EXTT8=
EXTT9=
EXTT10=
EXTT11=
EXTT12=
EXTT13=
EXTT14=
PLAYORDER=
